<svg width="46" height="80" viewBox="0 0 46 80" fill="none" xmlns="http://www.w3.org/2000/svg">
<path d="M24.3556 35.1111C14.2667 32.4889 11.0222 29.7778 11.0222 25.5556C11.0222 20.7111 15.5111 17.3333 23.0222 17.3333C30.9333 17.3333 33.8667 21.1111 34.1333 26.6667H43.9556C43.6444 19.0222 38.9778 12 29.6889 9.73333V0H16.3556V9.6C7.73333 11.4667 0.799999 17.0667 0.799999 25.6444C0.799999 35.9111 9.28889 41.0222 21.6889 44C32.8 46.6667 35.0222 50.5778 35.0222 54.7111C35.0222 57.7778 32.8444 62.6667 23.0222 62.6667C13.8667 62.6667 10.2667 58.5778 9.77778 53.3333H0C0.533333 63.0667 7.82222 68.5333 16.3556 70.3556V80H29.6889V70.4445C38.3556 68.8 45.2444 63.7778 45.2444 54.6667C45.2444 42.0444 34.4444 37.7333 24.3556 35.1111Z" fill="#FFD133"/>
</svg>
