<svg width="77" height="79" viewBox="0 0 77 79" fill="none" xmlns="http://www.w3.org/2000/svg">
<path d="M67.9378 43.3677C68.1027 42.1333 68.1852 40.8578 68.1852 39.5C68.1852 38.1833 68.1027 36.8667 67.8966 35.6323L76.2661 29.1312C77.0083 28.5552 77.2144 27.4443 76.7609 26.6214L68.8448 12.9609C68.3501 12.0557 67.3194 11.7677 66.4123 12.0557L56.5585 16.0057C54.497 14.4422 52.3118 13.1255 49.8793 12.138L48.3951 1.68698C48.2301 0.699479 47.4055 0 46.416 0H30.584C29.5945 0 28.8111 0.699479 28.6462 1.68698L27.1619 12.138C24.7294 13.1255 22.503 14.4833 20.4828 16.0057L10.6289 12.0557C9.72189 11.7266 8.69116 12.0557 8.1964 12.9609L0.321591 26.6214C-0.173162 27.4854 -0.00824491 28.5552 0.816343 29.1312L9.18591 35.6323C8.97976 36.8667 8.81485 38.2245 8.81485 39.5C8.81485 40.7755 8.8973 42.1333 9.10345 43.3677L0.733884 49.8687C-0.00824485 50.4448 -0.214391 51.5557 0.239132 52.3786L8.15517 66.0391C8.64993 66.9443 9.68066 67.2323 10.5877 66.9443L20.4415 62.9943C22.503 64.5578 24.6882 65.8745 27.1207 66.862L28.605 77.313C28.8111 78.3005 29.5945 79 30.584 79H46.416C47.4055 79 48.2301 78.3005 48.3538 77.313L49.8381 66.862C52.2706 65.8745 54.497 64.5578 56.5172 62.9943L66.3711 66.9443C67.2781 67.2734 68.3089 66.9443 68.8036 66.0391L76.7197 52.3786C77.2144 51.4734 77.0083 50.4448 76.2249 49.8687L67.9378 43.3677ZM38.5 54.3125C30.3366 54.3125 23.6574 47.6469 23.6574 39.5C23.6574 31.3531 30.3366 24.6875 38.5 24.6875C46.6634 24.6875 53.3426 31.3531 53.3426 39.5C53.3426 47.6469 46.6634 54.3125 38.5 54.3125Z" fill="#FFD133"/>
</svg>
