<svg width="54" height="68" viewBox="0 0 54 68" fill="none" xmlns="http://www.w3.org/2000/svg">
<path d="M33.6668 0.666672H7.00016C3.3335 0.666672 0.36683 3.66667 0.36683 7.33334L0.333496 60.6667C0.333496 64.3333 3.30016 67.3333 6.96683 67.3333H47.0002C50.6668 67.3333 53.6668 64.3333 53.6668 60.6667V20.6667L33.6668 0.666672ZM37.0002 34H23.6668V37.3333H33.6668C35.5002 37.3333 37.0002 38.8333 37.0002 40.6667V50.6667C37.0002 52.5 35.5002 54 33.6668 54H30.3335V57.3333H23.6668V54H17.0002V47.3333H30.3335V44H20.3335C18.5002 44 17.0002 42.5 17.0002 40.6667V30.6667C17.0002 28.8333 18.5002 27.3333 20.3335 27.3333H23.6668V24H30.3335V27.3333H37.0002V34ZM30.3335 20.6667V5.66667L45.3335 20.6667H30.3335Z" fill="#FFD133"/>
</svg>
