<svg width="80" height="80" viewBox="0 0 80 80" fill="none" xmlns="http://www.w3.org/2000/svg">
<path d="M46.6668 6.66667H20.0002C16.3335 6.66667 13.3668 9.66667 13.3668 13.3333L13.3335 66.6667C13.3335 70.3333 16.3002 73.3333 19.9668 73.3333H60.0002C63.6668 73.3333 66.6668 70.3333 66.6668 66.6667V26.6667L46.6668 6.66667ZM50.0002 40H36.6668V43.3333H46.6668C48.5002 43.3333 50.0002 44.8333 50.0002 46.6667V56.6667C50.0002 58.5 48.5002 60 46.6668 60H43.3335V63.3333H36.6668V60H30.0002V53.3333H43.3335V50H33.3335C31.5002 50 30.0002 48.5 30.0002 46.6667V36.6667C30.0002 34.8333 31.5002 33.3333 33.3335 33.3333H36.6668V30H43.3335V33.3333H50.0002V40ZM43.3335 26.6667V11.6667L58.3335 26.6667H43.3335Z" fill="#FFD133"/>
</svg>
