<svg width="80" height="80" viewBox="0 0 80 80" fill="none" xmlns="http://www.w3.org/2000/svg">
<path d="M36 48H28C28 28.12 44.12 12 64 12V20C48.52 20 36 32.52 36 48ZM64 36V28C52.96 28 44 36.96 44 48H52C52 41.36 57.36 36 64 36ZM20 8C20 3.56 16.44 0 12 0C7.56 0 4 3.56 4 8C4 12.44 7.56 16 12 16C16.44 16 20 12.44 20 8ZM37.8 10H29.8C28.84 15.68 23.96 20 18 20H6C2.68 20 0 22.68 0 26V36H24V26.96C31.44 24.6 37 18.04 37.8 10ZM68 60C72.44 60 76 56.44 76 52C76 47.56 72.44 44 68 44C63.56 44 60 47.56 60 52C60 56.44 63.56 60 68 60ZM74 64H62C56.04 64 51.16 59.68 50.2 54H42.2C43 62.04 48.56 68.6 56 70.96V80H80V70C80 66.68 77.32 64 74 64Z" fill="#FFD133"/>
</svg>
