<svg width="79" height="79" viewBox="0 0 79 79" fill="none" xmlns="http://www.w3.org/2000/svg">
<path d="M36.2082 29.625H42.7915V19.75H52.6665V13.1667H42.7915V3.29166H36.2082V13.1667H26.3332V19.75H36.2082V29.625ZM23.0415 59.25C19.4207 59.25 16.4911 62.2125 16.4911 65.8333C16.4911 69.4542 19.4207 72.4167 23.0415 72.4167C26.6623 72.4167 29.6248 69.4542 29.6248 65.8333C29.6248 62.2125 26.6623 59.25 23.0415 59.25ZM55.9582 59.25C52.3373 59.25 49.4078 62.2125 49.4078 65.8333C49.4078 69.4542 52.3373 72.4167 55.9582 72.4167C59.579 72.4167 62.5415 69.4542 62.5415 65.8333C62.5415 62.2125 59.579 59.25 55.9582 59.25ZM23.6011 48.5521L23.6998 48.1571L26.6623 42.7917H51.1853C53.654 42.7917 55.8265 41.4421 56.9457 39.4013L69.6515 16.3267L63.924 13.1667H63.8911L60.2703 19.75L51.1853 36.2083H28.0778L27.6498 35.3196L20.2765 19.75L17.1494 13.1667L14.0553 6.58333H3.2915V13.1667H9.87484L21.7248 38.1504L17.2811 46.215C16.7544 47.1367 16.4582 48.2229 16.4582 49.375C16.4582 52.9958 19.4207 55.9583 23.0415 55.9583H62.5415V49.375H24.424C23.9961 49.375 23.6011 49.0129 23.6011 48.5521Z" fill="#FFD133"/>
</svg>
