<svg width="67" height="70" viewBox="0 0 67 70" fill="none" xmlns="http://www.w3.org/2000/svg">
<path d="M33.2082 26.625H39.7915V16.75H49.6665V10.1667H39.7915V0.291664H33.2082V10.1667H23.3332V16.75H33.2082V26.625ZM20.0415 56.25C16.4207 56.25 13.4911 59.2125 13.4911 62.8333C13.4911 66.4542 16.4207 69.4167 20.0415 69.4167C23.6623 69.4167 26.6248 66.4542 26.6248 62.8333C26.6248 59.2125 23.6623 56.25 20.0415 56.25ZM52.9582 56.25C49.3373 56.25 46.4078 59.2125 46.4078 62.8333C46.4078 66.4542 49.3373 69.4167 52.9582 69.4167C56.579 69.4167 59.5415 66.4542 59.5415 62.8333C59.5415 59.2125 56.579 56.25 52.9582 56.25ZM20.6011 45.5521L20.6998 45.1571L23.6623 39.7917H48.1853C50.654 39.7917 52.8265 38.4421 53.9457 36.4013L66.6515 13.3267L60.924 10.1667H60.8911L57.2703 16.75L48.1853 33.2083H25.0778L24.6498 32.3196L17.2765 16.75L14.1494 10.1667L11.0553 3.58333H0.291504V10.1667H6.87484L18.7248 35.1504L14.2811 43.215C13.7544 44.1367 13.4582 45.2229 13.4582 46.375C13.4582 49.9958 16.4207 52.9583 20.0415 52.9583H59.5415V46.375H21.424C20.9961 46.375 20.6011 46.0129 20.6011 45.5521Z" fill="#FFD133"/>
</svg>
