<svg width="54" height="68" viewBox="0 0 54 68" fill="none" xmlns="http://www.w3.org/2000/svg">
<path d="M33.6667 0.666668H7.00001C3.33334 0.666668 0.366678 3.66667 0.366678 7.33333L0.333344 60.6667C0.333344 64.3333 3.30001 67.3333 6.96668 67.3333H47C50.6667 67.3333 53.6667 64.3333 53.6667 60.6667V20.6667L33.6667 0.666668ZM37 34H23.6667V37.3333H33.6667C35.5 37.3333 37 38.8333 37 40.6667V50.6667C37 52.5 35.5 54 33.6667 54H30.3333V57.3333H23.6667V54H17V47.3333H30.3333V44H20.3333C18.5 44 17 42.5 17 40.6667V30.6667C17 28.8333 18.5 27.3333 20.3333 27.3333H23.6667V24H30.3333V27.3333H37V34ZM30.3333 20.6667V5.66667L45.3333 20.6667H30.3333Z" fill="#FFD133"/>
</svg>
