<svg width="67" height="70" viewBox="0 0 67 70" fill="none" xmlns="http://www.w3.org/2000/svg">
<path d="M33.2083 26.6251H39.7916V16.7501H49.6666V10.1667H39.7916V0.291748H33.2083V10.1667H23.3333V16.7501H33.2083V26.6251ZM20.0416 56.2501C16.4208 56.2501 13.4912 59.2126 13.4912 62.8334C13.4912 66.4543 16.4208 69.4168 20.0416 69.4168C23.6625 69.4168 26.625 66.4543 26.625 62.8334C26.625 59.2126 23.6625 56.2501 20.0416 56.2501ZM52.9583 56.2501C49.3375 56.2501 46.4079 59.2126 46.4079 62.8334C46.4079 66.4543 49.3375 69.4168 52.9583 69.4168C56.5791 69.4168 59.5416 66.4543 59.5416 62.8334C59.5416 59.2126 56.5791 56.2501 52.9583 56.2501ZM20.6012 45.5522L20.7 45.1572L23.6625 39.7918H48.1854C50.6541 39.7918 52.8266 38.4422 53.9458 36.4013L66.6516 13.3267L60.9241 10.1667H60.8912L57.2704 16.7501L48.1854 33.2084H25.0779L24.65 32.3197L17.2766 16.7501L14.1495 10.1667L11.0554 3.58342H0.291626V10.1667H6.87496L18.725 35.1505L14.2812 43.2151C13.7545 44.1368 13.4583 45.223 13.4583 46.3751C13.4583 49.9959 16.4208 52.9584 20.0416 52.9584H59.5416V46.3751H21.4241C20.9962 46.3751 20.6012 46.013 20.6012 45.5522Z" fill="#FFD133"/>
</svg>
