<svg width="60" height="67" viewBox="0 0 60 67" fill="none" xmlns="http://www.w3.org/2000/svg">
<path d="M53.3333 7H39.4C38 3.13334 34.3333 0.333336 30 0.333336C25.6667 0.333336 22 3.13334 20.6 7H6.66667C3 7 0 10 0 13.6667V60.3333C0 64 3 67 6.66667 67H53.3333C57 67 60 64 60 60.3333V13.6667C60 10 57 7 53.3333 7ZM30 7C31.8333 7 33.3333 8.5 33.3333 10.3333C33.3333 12.1667 31.8333 13.6667 30 13.6667C28.1667 13.6667 26.6667 12.1667 26.6667 10.3333C26.6667 8.5 28.1667 7 30 7ZM23.3333 53.6667L10 40.3333L14.7 35.6333L23.3333 44.2333L45.3 22.2667L50 27L23.3333 53.6667Z" fill="#FFD133"/>
</svg>
