<svg width="57" height="63" viewBox="0 0 57 63" fill="none" xmlns="http://www.w3.org/2000/svg">
<path d="M50.375 6.375H37.3125C36 2.75 32.5625 0.125 28.5 0.125C24.4375 0.125 21 2.75 19.6875 6.375H6.625C3.1875 6.375 0.375 9.1875 0.375 12.625V56.375C0.375 59.8125 3.1875 62.625 6.625 62.625H50.375C53.8125 62.625 56.625 59.8125 56.625 56.375V12.625C56.625 9.1875 53.8125 6.375 50.375 6.375ZM28.5 6.375C30.2188 6.375 31.625 7.78125 31.625 9.5C31.625 11.2188 30.2188 12.625 28.5 12.625C26.7812 12.625 25.375 11.2188 25.375 9.5C25.375 7.78125 26.7812 6.375 28.5 6.375ZM28.5 18.875C33.6875 18.875 37.875 23.0625 37.875 28.25C37.875 33.4375 33.6875 37.625 28.5 37.625C23.3125 37.625 19.125 33.4375 19.125 28.25C19.125 23.0625 23.3125 18.875 28.5 18.875ZM47.25 56.375H9.75V52C9.75 45.75 22.25 42.3125 28.5 42.3125C34.75 42.3125 47.25 45.75 47.25 52V56.375Z" fill="#FFD133"/>
</svg>
